<svg width="93" height="100" viewBox="0 0 93 100" fill="none" xmlns="http://www.w3.org/2000/svg">
    <path d="m24.712 79.895-5.73 17.825a1.706 1.706 0 0 1-1.64 1.28h-3.455c-.938 0-1.698-.778-1.698-1.737 0-.158.02-.31.06-.457l5.566-16.911M72.72 79.895l5.755 17.825c.197.738.855 1.28 1.638 1.28h3.396c.938 0 1.698-.778 1.698-1.737 0-.158-.02-.31-.059-.457l-5.565-16.911M51.245 79.895H8.792c-.937 0-1.698-.778-1.698-1.737v-3.474c0-.959.761-1.737 1.698-1.737h81.51c.937 0 1.698.778 1.698 1.737v3.474c0 .959-.76 1.737-1.698 1.737H61.439M58.038 79.895h-3.393M3.698 99h30.566M37.66 99h3.397M44.453 99h3.396M68.226 99H92M18.981 72.947s-3.396-15.631-3.396-29.526c0-1.044.677-1.737 1.698-1.737h8.49" stroke="#0C474B" stroke-width="2" stroke-miterlimit="10"/>
    <path d="M20.68 41.684v-5.21c0-.959.76-1.737 1.697-1.737h6.793c.937 0 1.698.778 1.698 1.737v5.21h3.396c1.02 0 1.698.693 1.698 1.737 0 15.632-3.396 29.526-3.396 29.526" stroke="#0C474B" stroke-width="2" stroke-miterlimit="10"/>
    <path d="M29.17 34.737s0-5.21 5.094-5.21 5.094 5.21 10.189 5.21h3.396s-2.447-2.244-3.396-5.21c-2.179-6.807-5.095-10.422-10.189-10.422-5.943 0-8.49 5.21-8.49 5.21-.76-.887-4.777-5.21-10.19-5.21C5.397 19.105 2 31.263 2 31.263s5.094-3.474 11.887-3.474c6.792 0 8.49 6.948 8.49 6.948M48.999 72.947c-.695 0-1.32-.432-1.576-1.092l-2.848-6.948a1.781 1.781 0 0 1 0-1.29l2.848-6.947a1.697 1.697 0 0 1 1.576-1.091H63.68c.694 0 1.319.432 1.575 1.092l2.848 6.948a1.78 1.78 0 0 1 0 1.29l-2.848 6.948a1.697 1.697 0 0 1-1.575 1.09M44.453 64.263h23.773" stroke="#0C474B" stroke-width="2" stroke-miterlimit="10"/>
    <path d="M88.604 72.947V52.105c0-.958-.761-1.737-1.698-1.737h-3.397c-.937 0-1.698.779-1.698 1.737v1.737c0 1.92-1.52 3.474-3.396 3.474-3.062 0-10.189 0-10.189 6.947M85.207 50.368V31.263M85.207 31.263c2.814 0 5.095-2.333 5.095-5.21 0-2.878-2.281-5.21-5.095-5.21-2.813 0-5.094 2.332-5.094 5.21 0 2.877 2.281 5.21 5.094 5.21zM49.547 12.158h8.49M64.83 12.158h8.49M61.434 15.632v8.684M61.434 0v8.684M23.07 54.84a104.609 104.609 0 0 1-.594-7.23M56.34 55.579c0-5.424 1.698-13.895 8.49-13.895h1.698s-3.396 6.948-3.396 13.895M52.156 44.923c-1.215-1.219-2.264-1.502-4.307-1.502h-1.698s2.85 5.829 3.328 12.15" stroke="#0C474B" stroke-width="2" stroke-miterlimit="10"/>
</svg>
